<?xml version="1.0" standalone="no"?>
<!DOCTYPE svg PUBLIC "-//W3C//DTD SVG 20010904//EN" "http://www.w3.org/TR/2001/REC-SVG-20010904/DTD/svg10.dtd">
<!-- Created using Krita: https://krita.org -->
<svg xmlns="http://www.w3.org/2000/svg" 
    xmlns:xlink="http://www.w3.org/1999/xlink"
    xmlns:krita="http://krita.org/namespaces/svg/krita"
    xmlns:sodipodi="http://sodipodi.sourceforge.net/DTD/sodipodi-0.dtd"
    width="24.24pt"
    height="17.28pt"
    fill="#d88f57"
    viewBox="0 0 24.24 17.28">
<defs/>
<path id="shape0" transform="matrix(0.999999982339365 0 0 0.999999982339365 2.92229615787367 0.780792892733118)" fill-rule="evenodd" stroke-opacity="0" stroke="#000000" stroke-width="0" stroke-linecap="square" stroke-linejoin="bevel" d="M19.0057 0.719281C19.6144 9.88174 19.901 14.3975 19.8656 14.2666C19.7736 15.0239 19.4728 15.4344 18.9632 15.4981C18.4536 15.5618 12.5685 15.5371 1.30784 15.4238C0.401887 15.2185 -0.033393 14.5992 0.0019956 13.5658C0.0373842 12.5324 0.0656951 8.42367 0.0869283 1.23951C0.164783 0.468012 0.571752 0.0574884 1.30784 0.00794248C2.04392 -0.0416035 6.68337 0.140655 15.2262 0.554717C16.0472 0.898 16.4542 1.36515 16.4471 1.95616C16.44 2.54717 16.5037 5.28812 16.6382 10.179C16.624 11.1522 16.1215 11.6919 15.1306 11.7981C14.1397 11.9043 10.6681 11.9609 4.71576 11.968C4.05045 11.8158 3.69657 11.3044 3.6541 10.4338C3.61163 9.56323 3.60456 7.64509 3.63287 4.67942C3.68949 4.00701 4.10354 3.72035 4.87501 3.81944C5.64648 3.91853 8.07768 3.95392 12.1686 3.92561C12.9188 4.18042 13.2656 4.7555 13.209 5.65087C13.1524 6.54624 13.1843 7.11955 13.3046 7.37082C13.3117 7.87336 12.9295 8.12994 12.158 8.14055C11.3865 8.15117 9.88604 8.13701 7.65655 8.09809C7.23189 7.84682 7.11157 7.53715 7.29559 7.1691C7.57162 6.61702 7.83704 7.0417 8.97301 7.15317C10.109 7.26465 11.9563 7.14256 12.2748 7.1691C12.4871 7.18679 12.4376 6.51262 12.1261 5.14656L4.86439 4.93953C4.77946 4.92538 4.68391 5.0457 4.57774 5.30051C4.47158 5.55532 4.46804 7.2328 4.56713 10.333C4.46096 10.7046 4.54589 10.8833 4.82193 10.8691C5.09796 10.855 8.42449 10.8532 14.8015 10.8638C15.3748 10.8461 15.7039 10.4126 15.7889 9.56323C15.8738 8.71387 15.7853 6.38167 15.5234 2.56664C15.3394 2.08179 14.9962 1.78983 14.4936 1.69073C13.9911 1.59164 9.78695 1.40231 1.88113 1.12273C1.39985 1.03425 1.13797 1.26606 1.0955 1.81814C1.05304 2.37022 1.05304 6.15164 1.0955 13.1624C1.13797 14.033 1.53078 14.5001 2.27394 14.5638C3.01711 14.6275 8.17323 14.6293 17.7423 14.5691C18.5633 14.6293 18.9384 14.171 18.8677 13.1942C18.7969 12.2175 18.5138 8.08393 18.0183 0.793599C18.0467 0.729898 18.3758 0.705125 19.0057 0.719281Z" sodipodi:nodetypes="cczczczczczczczczczczzzcczczczczczczczcc"/>
</svg>
